<svg width="520" height="178" viewBox="0 0 520 178" fill="none" xmlns="http://www.w3.org/2000/svg">
<path d="M0 178H520V0H0V178Z" fill="#EC5C23"/>
<path fill-rule="evenodd" clip-rule="evenodd" d="M107.88 91.853V99.3682H131.326V106.744H107.88V110.502H97.1337V106.744H73.6876V99.3682H97.1337V91.853C67.6865 90.1829 44.7987 75.9875 44.7987 58.5911C44.7987 40.2205 70.6173 25.19 102.437 25.19C134.396 25.19 160.215 40.2205 160.215 58.5911C160.215 75.9875 137.187 90.1829 107.88 91.853ZM71.8733 58.5911C71.8733 45.6482 79.4095 34.5145 90.2952 29.6435C65.0349 32.9836 48.4273 45.7873 48.4273 58.5911C48.4273 71.3948 65.0349 84.3378 90.2952 87.5387C79.4095 82.6677 71.8733 71.534 71.8733 58.5911ZM114.718 29.6435C125.604 34.5145 133.14 45.6482 133.14 58.5911C133.14 71.534 125.604 82.6677 114.718 87.5387C139.979 84.3378 156.586 71.3948 156.586 58.5911C156.586 45.7873 139.979 32.9836 114.718 29.6435Z" fill="#FEFEFE"/>
<path d="M214.224 75.7091V85.312C208.735 88.1882 203.153 89.6263 197.477 89.6263C189.662 89.6263 183.475 87.3067 178.916 82.6677C174.729 78.5853 172.636 73.4824 172.636 67.3589C172.636 61.3281 174.869 56.1788 179.334 51.9109C184.173 47.3646 190.499 45.0915 198.315 45.0915C204.455 45.0915 209.619 46.344 213.806 48.8491V58.5911C208.595 55.5293 203.664 53.9984 199.012 53.9984C194.546 53.9984 190.871 55.251 187.987 57.7561C185.103 60.2611 183.661 63.4157 183.661 67.2197C183.661 71.1165 185.056 74.3174 187.848 76.8225C190.732 79.3276 194.407 80.5801 198.873 80.5801C201.385 80.5801 203.85 80.1626 206.269 79.3276C207.944 78.7709 210.596 77.5648 214.224 75.7091Z" fill="#FEFEFE"/>
<path fill-rule="evenodd" clip-rule="evenodd" d="M264.885 67.3589C264.885 73.2041 262.791 78.307 258.604 82.6677C254.045 87.3067 248.184 89.6263 241.02 89.6263C233.763 89.6263 227.855 87.2604 223.296 82.5285C219.109 78.3534 217.016 73.2968 217.016 67.3589C217.016 61.5137 219.062 56.4571 223.156 52.1892C227.622 47.4574 233.577 45.0915 241.02 45.0915C248.37 45.0915 254.325 47.4574 258.884 52.1892C262.884 56.5499 264.885 61.6065 264.885 67.3589ZM254.138 67.3589C254.138 63.3693 252.929 60.1684 250.51 57.7561C248.184 55.251 245.021 53.9984 241.02 53.9984C237.019 53.9984 233.809 55.251 231.39 57.7561C228.971 60.1684 227.762 63.3693 227.762 67.3589C227.762 71.3484 228.971 74.5494 231.39 76.9617C233.809 79.374 237.019 80.5801 241.02 80.5801C245.021 80.5801 248.184 79.374 250.51 76.9617C252.929 74.5494 254.138 71.3484 254.138 67.3589Z" fill="#FEFEFE"/>
<path fill-rule="evenodd" clip-rule="evenodd" d="M268.234 45.6482H287.075C294.518 45.6482 300.379 47.7821 304.659 52.05C308.567 55.9468 310.521 61.0498 310.521 67.3589C310.614 73.8535 308.613 79.0029 304.52 82.8069C300.24 86.8892 294.006 88.9768 285.819 89.0696H268.234V45.6482ZM278.841 53.5809V80.9977H285.819C290.657 80.9977 294.285 79.5132 296.704 76.5442C298.658 74.1319 299.635 71.0237 299.635 67.2197C299.635 63.2301 298.565 60.0292 296.425 57.6169C294.006 54.9262 290.424 53.5809 285.679 53.5809H278.841Z" fill="#FEFEFE"/>
<path d="M345.55 80.9977V89.0696H314.149V45.6482H345.132V53.5809H324.756V62.6271H344.155V70.5598H324.756V80.9977H345.55Z" fill="#FEFEFE"/>
<path d="M381.836 80.9977V89.0696H349.318V45.6482H360.064V80.9977H381.836Z" fill="#FEFEFE"/>
<path d="M423.843 75.7091V85.312C418.354 88.1882 412.772 89.6263 407.096 89.6263C399.281 89.6263 393.094 87.3067 388.535 82.6677C384.441 78.5853 382.394 73.4824 382.394 67.3589C382.394 61.3281 384.627 56.1788 389.093 51.9109C393.931 47.3646 400.211 45.0915 407.933 45.0915C414.074 45.0915 419.238 46.344 423.425 48.8491V58.5911C418.214 55.5293 413.33 53.9984 408.771 53.9984C404.212 53.9984 400.49 55.251 397.606 57.7561C394.722 60.2611 393.28 63.4157 393.28 67.2197C393.28 71.1165 394.722 74.3174 397.606 76.8225C400.397 79.3276 404.026 80.5801 408.492 80.5801C411.004 80.5801 413.516 80.1626 416.028 79.3276C417.703 78.7709 420.308 77.5648 423.843 75.7091Z" fill="#FEFEFE"/>
<path fill-rule="evenodd" clip-rule="evenodd" d="M474.503 67.3589C474.503 73.2041 472.41 78.307 468.223 82.6677C463.664 87.3067 457.803 89.6263 450.639 89.6263C443.382 89.6263 437.474 87.2604 432.915 82.5285C428.821 78.3534 426.774 73.2968 426.774 67.3589C426.774 61.5137 428.774 56.4571 432.775 52.1892C437.334 47.4574 443.289 45.0915 450.639 45.0915C458.082 45.0915 464.036 47.4574 468.502 52.1892C472.503 56.5499 474.503 61.6065 474.503 67.3589ZM463.757 67.3589C463.757 63.3693 462.594 60.1684 460.268 57.7561C457.849 55.251 454.639 53.9984 450.639 53.9984C446.731 53.9984 443.568 55.251 441.149 57.7561C438.637 60.1684 437.381 63.3693 437.381 67.3589C437.381 71.3484 438.637 74.5494 441.149 76.9617C443.568 79.374 446.731 80.5801 450.639 80.5801C454.639 80.5801 457.849 79.374 460.268 76.9617C462.594 74.5494 463.757 71.3484 463.757 67.3589Z" fill="#FEFEFE"/>
<path d="M196.5 109.389L195.384 112.45C193.43 111.476 191.476 110.78 188.685 110.78C182.126 110.78 178.637 114.816 178.637 120.522C178.637 126.228 182.265 130.403 188.127 130.403C190.639 130.403 192.872 129.708 194.546 128.316V123.306H187.987V120.244H197.756V129.847C194.965 132.491 191.616 133.604 187.708 133.604C180.451 133.604 174.45 128.873 174.45 120.522C174.45 112.45 180.032 107.579 188.127 107.579C190.918 107.579 194.128 108.136 196.5 109.389Z" fill="#FEFEFE"/>
<path fill-rule="evenodd" clip-rule="evenodd" d="M218.132 120.383V129.151C218.132 130.125 218.69 130.403 219.249 130.403C219.528 130.403 219.9 130.357 220.365 130.264L220.505 132.909C219.946 133.048 218.83 133.465 217.713 133.465C215.62 133.465 214.503 132.213 214.364 130.821C213.527 132.213 211.573 133.604 207.944 133.604C203.618 133.604 200.966 131.795 200.966 127.898C200.966 123.306 204.595 122.053 209.758 122.053C211.433 122.053 213.108 122.192 214.364 122.331V120.522C214.364 117.739 212.55 117.043 209.758 117.043C207.526 117.043 205.013 117.461 203.06 118.017L202.501 115.234C204.874 114.538 207.805 114.12 210.317 114.12C215.201 114.12 218.132 115.512 218.132 120.383ZM214.364 126.367V124.697C212.689 124.558 210.875 124.419 210.038 124.419C206.549 124.419 204.874 125.532 204.874 127.759C204.874 130.125 206.828 130.821 208.782 130.821C211.991 130.821 214.364 129.151 214.364 126.367Z" fill="#FEFEFE"/>
<path fill-rule="evenodd" clip-rule="evenodd" d="M227.622 117.321C228.599 115.651 230.692 114.12 234.321 114.12C240.043 114.12 242.974 118.574 242.974 123.862C242.974 129.151 240.183 133.604 234.321 133.604C231.111 133.604 228.739 132.352 227.483 130.264L227.064 133.326H223.854V106.744H227.622V117.321ZM227.622 124.002C227.622 128.455 230.274 130.682 233.344 130.682C236.973 130.682 239.066 128.177 239.066 124.002C239.066 119.687 236.973 117.043 233.344 117.043C230.274 117.043 227.622 119.409 227.622 124.002Z" fill="#FEFEFE"/>
<path d="M256.79 118.017C252.743 117.461 250.789 120.661 250.789 124.558V133.326H247.021V114.399H250.091L250.37 118.435C251.208 116.347 253.301 113.981 256.93 114.399L256.79 118.017Z" fill="#FEFEFE"/>
<path d="M264.605 133.326H260.837V117.182H258.465V114.399H264.605V133.326ZM264.745 109.806C264.745 111.059 263.908 111.615 262.652 111.615C261.256 111.615 260.558 111.059 260.558 109.806C260.558 108.554 261.256 107.858 262.652 107.858C263.908 107.858 264.745 108.554 264.745 109.806Z" fill="#FEFEFE"/>
<path fill-rule="evenodd" clip-rule="evenodd" d="M272.84 125.254C272.979 128.873 275.631 130.543 279.538 130.543C281.911 130.543 284.144 129.986 285.958 129.151L286.656 131.934C284.563 132.769 282.19 133.604 279.12 133.604C272.56 133.604 268.932 129.847 268.932 124.002C268.932 118.156 272.56 114.12 278.561 114.12C284.283 114.12 287.354 117.739 287.354 123.306C287.354 124.141 287.354 125.115 287.214 125.254H272.84ZM272.979 122.471H283.865C283.865 119.409 282.33 117.043 278.701 117.043C275.631 117.043 273.537 118.574 272.979 122.471Z" fill="#FEFEFE"/>
<path d="M295.169 129.151C295.169 130.403 295.867 130.682 296.704 130.682C297.262 130.682 297.96 130.682 298.239 130.543L298.379 133.326C297.542 133.465 296.704 133.604 295.309 133.604C292.657 133.604 291.401 132.352 291.401 129.847V106.744H295.169V129.151Z" fill="#FEFEFE"/>
<path fill-rule="evenodd" clip-rule="evenodd" d="M317.638 120.383V129.151C317.638 130.125 318.196 130.403 318.755 130.403C319.034 130.403 319.406 130.357 319.871 130.264L320.011 132.909C319.452 133.048 318.196 133.465 317.22 133.465C315.126 133.465 314.01 132.213 313.87 130.821C313.033 132.213 311.079 133.604 307.45 133.604C303.124 133.604 300.472 131.795 300.472 127.898C300.472 123.306 304.101 122.053 309.265 122.053C310.8 122.053 312.614 122.192 313.87 122.331V120.522C313.87 117.739 312.056 117.043 309.265 117.043C307.032 117.043 304.52 117.461 302.566 118.017L302.007 115.234C304.38 114.538 307.311 114.12 309.823 114.12C314.707 114.12 317.638 115.512 317.638 120.383ZM313.87 126.367V124.697C312.195 124.558 310.381 124.419 309.544 124.419C306.055 124.419 304.38 125.532 304.38 127.759C304.38 130.125 306.334 130.821 308.288 130.821C311.498 130.821 313.87 129.151 313.87 126.367Z" fill="#FEFEFE"/>
<path d="M361.181 133.326H357.134V118.296L357.413 112.59H357.273L349.179 130.682H345.55L337.456 112.59L337.735 118.296V133.326H333.688V107.997H339.41L347.504 126.507L355.459 107.997H361.181V133.326Z" fill="#FEFEFE"/>
<path d="M371.229 133.326H367.461V117.182H365.228V114.399H371.229V133.326ZM371.369 109.806C371.369 111.059 370.671 111.615 369.275 111.615C368.019 111.615 367.182 111.059 367.182 109.806C367.182 108.554 368.019 107.858 369.275 107.858C370.671 107.858 371.369 108.554 371.369 109.806Z" fill="#FEFEFE"/>
<path d="M389.93 115.512L389.232 118.017C388.395 117.6 386.162 116.904 383.51 116.904C380.58 116.904 379.463 117.878 379.463 119.27C379.463 121.357 381.417 121.636 384.348 122.331C387.558 123.306 390.768 124.28 390.768 128.038C390.768 131.934 387.418 133.604 383.231 133.604C380.021 133.604 377.23 132.63 375.556 131.934L376.393 129.429C377.37 129.847 379.882 130.821 382.813 130.821C385.743 130.821 386.86 129.708 386.86 128.316C386.86 126.228 384.627 126.089 381.836 125.254C378.905 124.419 375.695 123.584 375.695 119.687C375.695 115.79 378.765 114.12 382.952 114.12C385.604 114.12 388.116 114.816 389.93 115.512Z" fill="#FEFEFE"/>
<path d="M398.862 114.399H404.165V117.182H398.862V127.759C398.862 130.125 399.699 130.821 401.374 130.821C402.351 130.821 403.607 130.543 404.026 130.403L404.165 132.909C403.188 133.326 401.793 133.604 400.397 133.604C397.048 133.604 395.094 132.213 395.094 127.759V117.182H392.442V114.399H395.094L395.652 108.971H398.862V114.399Z" fill="#FEFEFE"/>
<path d="M417.563 118.017C413.516 117.461 411.562 120.661 411.562 124.558V133.326H407.794V114.399H410.864L411.143 118.435C411.981 116.347 414.074 113.981 417.703 114.399L417.563 118.017Z" fill="#FEFEFE"/>
<path fill-rule="evenodd" clip-rule="evenodd" d="M436.543 120.383V129.151C436.543 130.125 436.962 130.403 437.66 130.403C437.939 130.403 438.264 130.357 438.637 130.264L438.916 132.909C438.357 133.048 437.101 133.465 435.985 133.465C433.892 133.465 432.915 132.213 432.775 130.821C431.798 132.213 429.984 133.604 426.216 133.604C422.029 133.604 419.377 131.795 419.377 127.898C419.377 123.306 422.866 122.053 428.03 122.053C429.705 122.053 431.379 122.192 432.775 122.331V120.522C432.775 117.739 430.821 117.043 428.17 117.043C425.797 117.043 423.285 117.461 421.331 118.017L420.773 115.234C423.285 114.538 426.076 114.12 428.728 114.12C433.612 114.12 436.543 115.512 436.543 120.383ZM432.775 126.367V124.697C430.961 124.558 429.147 124.419 428.309 124.419C424.82 124.419 423.145 125.532 423.145 127.759C423.145 130.125 425.099 130.821 427.193 130.821C430.263 130.821 432.775 129.151 432.775 126.367Z" fill="#FEFEFE"/>
<path d="M445.615 129.151C445.615 130.403 446.173 130.682 447.01 130.682C447.708 130.682 448.266 130.682 448.545 130.543L448.685 133.326C447.848 133.465 447.01 133.604 445.754 133.604C442.963 133.604 441.846 132.352 441.846 129.847V106.744H445.615V129.151Z" fill="#FEFEFE"/>
</svg>
